<?xml version="1.0" encoding="UTF-8" standalone="no"?>
<svg
   xmlns:dc="http://purl.org/dc/elements/1.1/"
   xmlns:cc="http://creativecommons.org/ns#"
   xmlns:rdf="http://www.w3.org/1999/02/22-rdf-syntax-ns#"
   xmlns:svg="http://www.w3.org/2000/svg"
   xmlns="http://www.w3.org/2000/svg"
   xmlns:sodipodi="http://sodipodi.sourceforge.net/DTD/sodipodi-0.dtd"
   xmlns:inkscape="http://www.inkscape.org/namespaces/inkscape"
   width="51.400566mm"
   height="64.973923mm"
   viewBox="0 0 51.400566 64.973923"
   version="1.1"
   id="svg957"
   inkscape:version="1.0.2 (e86c8708, 2021-01-15)"
   sodipodi:docname="paper.svg">
  <defs
     id="defs951" />
  <sodipodi:namedview
     id="base"
     pagecolor="#ffffff"
     bordercolor="#666666"
     borderopacity="1.0"
     inkscape:pageopacity="0.0"
     inkscape:pageshadow="2"
     inkscape:zoom="0.35"
     inkscape:cx="-594.29366"
     inkscape:cy="902.78538"
     inkscape:document-units="mm"
     inkscape:current-layer="layer1"
     inkscape:document-rotation="0"
     showgrid="false"
     fit-margin-top="0"
     fit-margin-left="0"
     fit-margin-right="0"
     fit-margin-bottom="0"
     inkscape:window-width="1252"
     inkscape:window-height="847"
     inkscape:window-x="126"
     inkscape:window-y="446"
     inkscape:window-maximized="0" />
  <metadata
     id="metadata954">
    <rdf:RDF>
      <cc:Work
         rdf:about="">
        <dc:format>image/svg+xml</dc:format>
        <dc:type
           rdf:resource="http://purl.org/dc/dcmitype/StillImage" />
        <dc:title></dc:title>
      </cc:Work>
    </rdf:RDF>
  </metadata>
  <g
     inkscape:label="Layer 1"
     inkscape:groupmode="layer"
     id="layer1"
     transform="translate(-263.07353,90.695298)">
    <path
       style="fill:#ffffff;stroke-width:0.264583"
       d="m 280.35056,-26.00196 c -0.31683,-0.31683 -0.39222,-1.28642 -0.39222,-5.044182 v -4.65195 l 1.05833,-0.97705 c 1.80216,-1.66374 1.29474,-2.95889 -2.25861,-5.76494 -4.17994,-3.30088 -5.27878,-4.41978 -6.33843,-6.45418 -1.71926,-3.30075 -3.52675,-5.66387 -6.49204,-8.487687 l -2.85406,-2.7179 0.20282,-1.109148 c 0.38198,-2.088899 1.7236,-3.339269 3.9395,-3.671565 1.88106,-0.282083 3.71212,0.293011 6.38047,2.003968 1.33297,0.854705 2.77934,1.678024 3.21416,1.829605 1.2822,0.44698 1.27546,1.19003 0.10537,-11.611484 -0.21946,-2.401094 -0.57718,-5.510927 -0.79493,-6.91074 -0.70854,-4.554792 -0.39065,-5.983474 1.58846,-7.139163 2.24541,-1.311192 4.90505,0.478057 5.24091,3.525774 0.0556,0.504338 0.18069,1.045836 0.27802,1.20333 0.14431,0.233495 2.55086,11.892223 2.55086,12.357837 0,0.07588 0.11906,0.137962 0.26459,0.137962 0.17079,0 0.26968,-3.118447 0.27897,-8.797396 0.0162,-9.91926 0.12555,-10.627813 1.81552,-11.766686 1.34683,-0.907633 3.65209,-0.853528 4.80035,0.112665 1.58601,1.334545 1.64173,1.714433 1.59428,10.869711 -0.0426,8.212207 0.0994,10.822742 0.52583,9.669979 0.11223,-0.303377 0.92803,-3.453677 1.8129,-7.000664 0.88486,-3.546987 1.72762,-6.655812 1.87279,-6.908499 0.14516,-0.252686 0.26394,-0.702995 0.26394,-1.000685 0,-2.459126 2.8095,-4.189165 4.97407,-3.06294 2.38871,1.242841 2.67594,2.890848 1.49357,8.569416 -1.48166,7.115957 -2.25125,10.638894 -2.42037,11.079616 -0.0973,0.253606 -0.0433,0.383212 0.1342,0.322106 0.16338,-0.05624 1.64087,-2.300195 3.28331,-4.986573 3.28017,-5.365049 4.00856,-6.107887 5.55438,-5.664553 0.449,0.128771 1.18379,0.688099 1.63286,1.24295 0.71647,0.885218 0.81617,1.209147 0.81369,2.643833 -0.003,1.558504 -0.1566,1.944528 -3.28899,8.249595 l -3.28616,6.614579 -0.18931,4.36563 c -0.20889,4.817257 -0.64487,6.879847 -2.06927,9.789577 -1.07854,2.20323 -1.6049,4.21424 -1.6049,6.1317 0,1.29975 0.0855,1.56838 0.58436,1.83534 1.44353,0.77256 1.51404,1.06157 1.52351,6.24501 0.008,4.434462 -0.0305,4.840392 -0.48382,5.082982 -0.34308,0.18361 -0.62247,0.16636 -0.92041,-0.0568 -0.34243,-0.25653 -0.44212,-0.92759 -0.49957,-3.363182 -0.0832,-3.52591 0.3434,-3.26075 -3.77594,-2.34719 -2.20217,0.48838 -3.46662,0.58738 -7.54063,0.59037 -4.20359,0.003 -5.24973,-0.082 -7.40833,-0.60291 -3.91155,-0.94384 -3.56259,-1.15804 -3.62876,2.22744 -0.0313,1.600722 -0.061,3.045352 -0.0661,3.210282 -0.0149,0.48334 -1.04201,0.61396 -1.46913,0.18685 z m 20.02435,-7.498752 c 1.819,-0.39809 1.7995,-0.34668 1.80629,-4.76193 0.006,-3.73519 0.17814,-4.55023 1.59843,-7.557 1.29774,-2.74734 1.82945,-5.3818 2.07932,-10.302377 l 0.20153,-3.96875 3.2208,-6.478128 c 3.27695,-6.591054 3.55725,-7.442928 2.91375,-8.855252 -0.65084,-1.428455 -0.97407,-1.082469 -4.43755,4.750051 -3.44139,5.79533 -4.62842,6.898227 -6.26812,5.823855 -0.63306,-0.414795 -0.67865,-0.564891 -0.55135,-1.815105 0.0763,-0.749605 0.69335,-3.863229 1.37114,-6.919167 1.90542,-8.590861 2.13301,-9.998248 1.76177,-10.894519 -0.17356,-0.418999 -0.56314,-0.916431 -0.86573,-1.105404 -0.78346,-0.489281 -2.03292,0.05947 -2.24745,0.987062 -0.69692,3.013367 -3.91729,15.762979 -4.22838,16.74044 -0.29287,0.92016 -0.59896,1.330198 -1.21614,1.629108 -1.06192,0.5143 -1.75901,0.250896 -2.37576,-0.897713 -0.44479,-0.828328 -0.48366,-1.681702 -0.47177,-10.35507 0.0108,-7.906772 -0.052,-9.577956 -0.38428,-10.220542 -0.65355,-1.263823 -2.06316,-1.486314 -3.17788,-0.501592 l -0.6739,0.595313 -0.0685,9.789584 c -0.0647,9.246317 -0.0978,9.839351 -0.59762,10.686418 -0.74124,1.256257 -1.4732,1.465387 -2.5626,0.732163 l -0.87699,-0.590262 -1.73336,-8.653842 c -1.39918,-6.985421 -1.83277,-8.729016 -2.24896,-9.043765 -0.6566,-0.496562 -1.46449,-0.509558 -2.11482,-0.03402 -0.63116,0.461515 -0.6245,0.687818 0.24198,8.226225 1.36988,11.91794 1.65374,17.948392 0.98959,21.023572 -0.46353,2.146227 -1.55088,3.030917 -2.42731,1.974887 -0.28781,-0.34679 -0.27129,-0.55882 0.0979,-1.256777 0.24427,-0.46178 0.47478,-1.54644 0.51226,-2.41035 0.0673,-1.55095 0.0581,-1.57291 -0.72562,-1.74253 -1.04058,-0.2252 -2.50386,-0.99362 -4.67873,-2.456971 -2.72769,-1.835311 -4.90929,-2.104247 -6.36714,-0.784907 -0.84683,0.766371 -0.54454,1.450208 1.42972,3.234268 2.49404,2.25377 4.68831,5.053007 6.29842,8.034897 1.53884,2.84992 2.41714,3.8095 5.90926,6.45608 2.50275,1.89678 4.02316,3.5523 4.30617,4.68886 0.0747,0.29987 0.22011,1.72857 0.3232,3.1749 l 0.18743,2.62968 0.87443,0.22592 c 2.93438,0.75814 12.0804,0.8803 15.17652,0.20269 z"
       id="path895" />
  </g>
</svg>
