<?xml version="1.0" encoding="UTF-8" standalone="no"?>
<svg
   xmlns:dc="http://purl.org/dc/elements/1.1/"
   xmlns:cc="http://creativecommons.org/ns#"
   xmlns:rdf="http://www.w3.org/1999/02/22-rdf-syntax-ns#"
   xmlns:svg="http://www.w3.org/2000/svg"
   xmlns="http://www.w3.org/2000/svg"
   xmlns:sodipodi="http://sodipodi.sourceforge.net/DTD/sodipodi-0.dtd"
   xmlns:inkscape="http://www.inkscape.org/namespaces/inkscape"
   width="41.897736mm"
   height="60.741108mm"
   viewBox="0 0 41.897736 60.741108"
   version="1.1"
   id="svg2790"
   inkscape:version="1.0.2 (e86c8708, 2021-01-15)"
   sodipodi:docname="rock.svg">
  <defs
     id="defs2784" />
  <sodipodi:namedview
     id="base"
     pagecolor="#ffffff"
     bordercolor="#666666"
     borderopacity="1.0"
     inkscape:pageopacity="0.0"
     inkscape:pageshadow="2"
     inkscape:zoom="0.35"
     inkscape:cx="-703.68032"
     inkscape:cy="163.35778"
     inkscape:document-units="mm"
     inkscape:current-layer="layer1"
     inkscape:document-rotation="0"
     showgrid="false"
     fit-margin-top="0"
     fit-margin-left="0"
     fit-margin-right="0"
     fit-margin-bottom="0"
     inkscape:window-width="1252"
     inkscape:window-height="847"
     inkscape:window-x="0"
     inkscape:window-y="25"
     inkscape:window-maximized="0" />
  <metadata
     id="metadata2787">
    <rdf:RDF>
      <cc:Work
         rdf:about="">
        <dc:format>image/svg+xml</dc:format>
        <dc:type
           rdf:resource="http://purl.org/dc/dcmitype/StillImage" />
        <dc:title></dc:title>
      </cc:Work>
    </rdf:RDF>
  </metadata>
  <g
     inkscape:label="Layer 1"
     inkscape:groupmode="layer"
     id="layer1"
     transform="translate(-292.01542,-104.94492)">
    <path
       style="fill:#ffffff;stroke-width:0.264583"
       d="m 301.90066,165.40812 c -0.39399,-0.22049 -0.44704,-0.81863 -0.44704,-5.0405 v -4.79032 l 1.05833,-1.00677 c 0.8766,-0.83388 1.05834,-1.18143 1.05834,-2.02389 0,-1.57221 -1.08357,-2.97577 -5.62729,-7.28915 -4.94361,-4.693 -5.88901,-6.00455 -5.84429,-8.10788 0.06,-2.82045 2.48465,-8.04948 4.43857,-9.57217 0.42471,-0.33097 1.24305,-0.66664 1.81854,-0.74592 0.92512,-0.12746 1.09619,-0.26796 1.47675,-1.21289 0.74368,-1.84653 1.60046,-2.96996 2.80212,-3.67418 1.34652,-0.78911 2.34565,-0.85363 3.8567,-0.24902 1.05354,0.42154 1.11303,0.41533 2.45275,-0.25618 2.43939,-1.22269 4.43901,-1.12623 6.48373,0.31278 0.59115,0.41603 0.95393,0.46643 2.16533,0.30086 1.72871,-0.23629 3.45048,0.36039 4.64861,1.61096 0.5685,0.59339 0.98001,0.77455 1.75939,0.77455 2.36918,0 4.08155,1.57681 5.02829,4.63021 0.47521,1.53261 0.57343,2.49104 0.56944,5.55625 -0.005,3.98816 -0.1207,4.51677 -2.22581,10.18646 -1.33784,3.6032 -1.84242,5.58041 -1.84242,7.21965 0,1.44408 0.0613,1.59107 1.05834,2.53956 l 1.05833,1.00677 v 4.65228 c 0,3.87656 -0.0693,4.7216 -0.41577,5.06805 -0.53376,0.53376 -0.72782,0.5233 -1.26301,-0.0681 -0.35302,-0.39008 -0.43789,-1.06269 -0.43789,-3.47044 0,-2.97319 -0.003,-2.9858 -0.59531,-2.80981 -6.22065,1.84719 -14.97548,1.85237 -20.76979,0.0123 -0.59201,-0.18801 -0.59531,-0.17337 -0.59531,2.63732 0,1.55451 -0.11576,3.04267 -0.25724,3.30702 -0.33605,0.62793 -0.85684,0.8131 -1.41239,0.5022 z m 19.92588,-7.65222 c 0.65484,-0.17473 1.28233,-0.3989 1.39441,-0.49816 0.11209,-0.0993 0.24826,-1.86147 0.30262,-3.91604 l 0.0988,-3.73559 1.51036,-4.31562 c 2.19009,-6.25781 2.29222,-6.6713 2.43828,-9.87188 0.14735,-3.2288 -0.16435,-5.45472 -1.00782,-7.19709 -0.70667,-1.45979 -1.25848,-1.74124 -3.326,-1.6964 -1.26392,0.0274 -1.67526,-0.0532 -1.67526,-0.32806 0,-1.16065 -2.39775,-2.54027 -3.80228,-2.18775 -0.646,0.16214 -0.67754,0.26078 -0.75112,2.34969 -0.0761,2.16024 -0.0836,2.18122 -0.80428,2.26415 -0.93209,0.10725 -1.2569,-0.66631 -1.2569,-2.99333 0,-1.58079 -0.0504,-1.72042 -0.81792,-2.26696 -1.06442,-0.75793 -2.8257,-0.95826 -3.83522,-0.43622 -1.42106,0.73486 -1.66622,1.22545 -1.75082,3.50351 l -0.0783,2.1093 h -0.79375 -0.79375 l -0.0712,-2.11667 c -0.0829,-2.46435 -0.49794,-3.04271 -2.18357,-3.04271 -0.80929,0 -1.14699,0.1678 -1.73057,0.8599 -1.2315,1.46049 -1.39906,2.21612 -1.53712,6.93184 -0.12919,4.4127 -0.13541,4.4504 -0.85907,5.20574 -0.77923,0.81334 -1.38792,0.95538 -1.89994,0.44335 -0.44919,-0.44919 -0.39615,-0.83376 0.21166,-1.53458 0.45845,-0.52859 0.52917,-0.9899 0.52917,-3.45176 0,-3.00637 -0.1225,-3.29368 -1.22896,-2.88229 -0.77415,0.28784 -1.75148,1.6308 -2.68408,3.68822 -2.18889,4.82895 -1.99607,5.61077 2.39756,9.72113 4.25452,3.98022 6.5954,6.47847 7.08896,7.56551 0.39774,0.87598 0.50151,1.73509 0.50613,4.19023 l 0.006,3.08834 0.87239,0.28791 c 0.47982,0.15836 1.58115,0.39905 2.4474,0.53487 2.08948,0.32761 11.57563,0.12999 13.08437,-0.27258 z m -16.00729,-17.04056 c -1.16417,-0.1992 -2.26131,-0.37113 -2.43809,-0.38206 -0.17678,-0.0109 -0.45629,-0.27189 -0.62114,-0.57991 -0.23771,-0.44416 -0.21467,-0.64509 0.11135,-0.97111 0.37172,-0.37171 0.65922,-0.3658 3.00239,0.0617 6.20786,1.13273 11.91814,0.74481 15.6975,-1.0664 2.10513,-1.00886 2.37194,-1.06831 2.37194,-0.5285 0,0.74852 -3.02323,2.29082 -6.08541,3.10448 -2.59604,0.68979 -8.99728,0.88215 -12.03854,0.36175 z m -12.20141,-21.95579 c -1.36668,-0.63943 -1.79249,-1.1525 -1.52817,-1.84131 0.25134,-0.65496 0.83736,-0.67466 2.21318,-0.0744 1.42143,0.62018 1.92797,1.44999 1.32709,2.17401 -0.41206,0.4965 -0.39374,0.49886 -2.0121,-0.25833 z m 36.72913,0.30385 c -0.9987,-0.44892 -0.61921,-1.21054 1.0312,-2.06953 1.47667,-0.76858 2.18389,-0.79034 2.45815,-0.0756 0.25269,0.6585 -0.0854,1.05108 -1.50141,1.74345 -1.10122,0.53843 -1.5031,0.61964 -1.98794,0.40171 z m -27.67428,-4.48072 c -0.20935,-0.32743 -0.82598,-1.50283 -1.3703,-2.61202 -1.10531,-2.25234 -1.08458,-2.96411 0.0824,-2.82966 0.61182,0.0705 0.9059,0.42154 1.84343,2.20053 1.16729,2.21495 1.34747,2.98979 0.8183,3.51896 -0.47919,0.47919 -0.95082,0.38382 -1.37385,-0.27781 z m 19.21999,0.42313 c -0.60436,-0.24943 -0.32517,-1.52371 0.80283,-3.66428 1.01577,-1.92759 1.1863,-2.11667 1.90915,-2.11667 1.17723,0 1.10977,0.69252 -0.33507,3.43959 -1.18419,2.25152 -1.60064,2.66173 -2.37691,2.34136 z m -9.58055,-1.27027 c -0.26624,-0.32079 -0.41521,-4.49131 -0.29044,-8.13087 0.0197,-0.57557 0.98682,-0.88224 1.48317,-0.47031 0.50616,0.42007 0.56576,8.16871 0.0667,8.6678 -0.42419,0.42419 -0.87172,0.40052 -1.25941,-0.0666 z"
       id="path863" />
  </g>
</svg>
