<?xml version="1.0" encoding="UTF-8" standalone="no"?>
<svg
   xmlns:dc="http://purl.org/dc/elements/1.1/"
   xmlns:cc="http://creativecommons.org/ns#"
   xmlns:rdf="http://www.w3.org/1999/02/22-rdf-syntax-ns#"
   xmlns:svg="http://www.w3.org/2000/svg"
   xmlns="http://www.w3.org/2000/svg"
   xmlns:sodipodi="http://sodipodi.sourceforge.net/DTD/sodipodi-0.dtd"
   xmlns:inkscape="http://www.inkscape.org/namespaces/inkscape"
   width="36.512451mm"
   height="65.237991mm"
   viewBox="0 0 36.512451 65.237991"
   version="1.1"
   id="svg2183"
   inkscape:version="1.0.2 (e86c8708, 2021-01-15)"
   sodipodi:docname="scissors.svg">
  <defs
     id="defs2177" />
  <sodipodi:namedview
     id="base"
     pagecolor="#ffffff"
     bordercolor="#666666"
     borderopacity="1.0"
     inkscape:pageopacity="0.0"
     inkscape:pageshadow="2"
     inkscape:zoom="0.35"
     inkscape:cx="-325.28578"
     inkscape:cy="71.855824"
     inkscape:document-units="mm"
     inkscape:current-layer="layer1"
     inkscape:document-rotation="0"
     showgrid="false"
     fit-margin-top="0"
     fit-margin-left="0"
     fit-margin-right="0"
     fit-margin-bottom="0"
     inkscape:window-width="1252"
     inkscape:window-height="847"
     inkscape:window-x="0"
     inkscape:window-y="25"
     inkscape:window-maximized="0" />
  <metadata
     id="metadata2180">
    <rdf:RDF>
      <cc:Work
         rdf:about="">
        <dc:format>image/svg+xml</dc:format>
        <dc:type
           rdf:resource="http://purl.org/dc/dcmitype/StillImage" />
        <dc:title></dc:title>
      </cc:Work>
    </rdf:RDF>
  </metadata>
  <g
     inkscape:label="Layer 1"
     inkscape:groupmode="layer"
     id="layer1"
     transform="translate(-191.89853,-129.15481)">
    <path
       style="fill:#ffffff;stroke-width:0.264583"
       d="m 200.38297,193.93182 c -0.35593,-0.66505 -0.37523,-7.78278 -0.0244,-9.00596 0.14187,-0.4947 0.67934,-1.28541 1.19436,-1.75715 0.84281,-0.772 0.90892,-0.92997 0.66149,-1.58077 -0.50118,-1.31822 -1.31092,-2.1946 -4.30633,-4.66077 -4.61529,-3.79985 -6.00956,-5.50945 -6.00956,-7.36869 0,-1.24642 0.94999,-5.68755 1.72345,-8.05698 0.916,-2.80608 1.79191,-4.59335 2.86623,-5.84845 0.88306,-1.03166 0.89609,-1.08225 0.67925,-2.63597 -0.12159,-0.87127 -0.52797,-3.84632 -0.90307,-6.61122 -0.37509,-2.76489 -0.85386,-6.12347 -1.06394,-7.46351 -0.38137,-2.43261 -0.30864,-3.53994 0.38578,-5.87417 0.51748,-1.73946 2.32207,-2.90261 3.94895,-2.54528 1.16246,0.25532 2.94584,2.40986 2.53927,3.06773 -0.092,0.14889 -0.0519,0.41432 0.0891,0.58985 0.14105,0.17552 0.38454,0.91445 0.54108,1.64205 0.67186,3.12281 2.97958,13.27253 3.12297,13.73529 0.22106,0.71345 0.41261,0.28204 1.282,-2.88737 0.39918,-1.45521 1.3667,-4.86985 2.15004,-7.5881 0.78334,-2.71824 1.42426,-5.134 1.42426,-5.36835 0,-0.7109 0.95947,-2.34014 1.89504,-3.2179 1.75976,-1.65101 4.04171,-1.79299 5.49294,-0.34176 1.05298,1.05298 1.21386,2.13448 0.71198,4.78621 -1.93148,10.20524 -2.80829,15.04443 -2.80829,15.49914 0,0.4655 0.17135,0.53533 1.31372,0.53533 0.93988,0 1.65023,0.1972 2.49625,0.693 1.14382,0.67033 2.27544,1.92245 2.27544,2.51775 0,0.15944 0.44834,0.28989 0.99632,0.28989 3.40418,0 5.35368,3.68883 5.35368,10.13021 0,3.54679 -0.37936,5.24433 -2.3752,10.62816 -0.9403,2.53651 -1.41641,4.25907 -1.52056,5.50145 l -0.15164,1.80869 0.96537,0.88424 c 0.59219,0.54243 0.96454,1.12615 0.96323,1.51002 -0.001,0.34417 0.0577,2.3909 0.13095,4.54827 0.14875,4.38393 1e-4,5.02233 -1.1388,4.89075 l -0.70981,-0.082 -0.0745,-3.27039 c -0.0737,-3.23253 -0.0813,-3.26858 -0.66146,-3.11461 -4.21994,1.11996 -5.462,1.27608 -10.37652,1.30432 -4.89595,0.0281 -7.14712,-0.24355 -10.6411,-1.28414 -0.58131,-0.17313 -0.58765,-0.14345 -0.66146,3.095 l -0.0745,3.26982 -0.70981,0.082 c -0.49374,0.057 -0.79577,-0.0786 -0.99219,-0.44563 z m 18.50303,-6.92357 c 0.94589,-0.14946 2.09281,-0.39133 2.54873,-0.53747 l 0.82893,-0.26572 0.13203,-3.36314 c 0.14436,-3.67763 0.22066,-3.99662 2.48198,-10.3746 l 1.54783,-4.36562 -0.0176,-3.43958 c -0.0198,-3.87107 -0.47047,-5.92252 -1.59457,-7.25845 -0.63868,-0.75902 -0.79881,-0.81135 -2.48296,-0.81135 -1.91273,0 -2.12146,-0.14298 -2.12146,-1.45332 0,-0.65092 -1.1762,-1.82006 -2.13824,-2.1254 -0.70829,-0.22481 -2.22663,0.0565 -2.574,0.47687 -0.14712,0.17805 -0.35319,0.79998 -0.45795,1.38206 -0.10476,0.58208 -0.30858,1.20716 -0.45295,1.38906 -0.34633,0.43639 -1.1161,0.42126 -1.49002,-0.0293 -0.30534,-0.36791 -0.23484,-0.83108 1.41555,-9.29726 0.34042,-1.74625 0.88156,-4.60375 1.20256,-6.35 0.32099,-1.74625 0.64556,-3.35359 0.72127,-3.57187 0.15506,-0.44704 0.19648,-0.72864 0.47578,-3.2348 0.23228,-2.08418 -0.0265,-2.58604 -1.33321,-2.58604 -0.62039,0 -1.09341,0.23644 -1.68638,0.84296 -0.84372,0.86296 -1.24299,1.96821 -2.80183,7.756 -0.39193,1.45521 -0.87417,3.18162 -1.07164,3.83646 -0.19747,0.65485 -0.8593,3.0361 -1.47072,5.29167 -0.61141,2.25557 -1.19598,4.19592 -1.29902,4.31188 -0.21839,0.24579 -2.29103,0.36824 -2.51092,0.14835 -0.0821,-0.0821 -0.51107,-1.74427 -0.95335,-3.69378 -2.32735,-10.25863 -2.65981,-11.80615 -2.68193,-12.4837 -0.0132,-0.40537 -0.12488,-0.79935 -0.24811,-0.87551 -0.12323,-0.0762 -0.22405,-0.42669 -0.22405,-0.77896 0,-0.35227 -0.18973,-1.11466 -0.42161,-1.6942 -0.71687,-1.79163 -2.06959,-1.76701 -2.90392,0.0529 -0.60585,1.32149 -0.70424,0.22144 1.36649,15.27765 1.59603,11.60472 1.70072,13.80674 0.74905,15.75654 -0.42429,0.86929 -0.64234,1.0445 -1.29993,1.0445 -0.98641,0 -1.14812,-0.59274 -0.52179,-1.91263 0.33463,-0.70518 0.44653,-1.60178 0.42857,-3.43387 -0.0239,-2.43378 -0.1261,-2.98788 -0.55134,-2.98788 -0.57085,0 -2.71266,6.23192 -3.46503,10.08205 -0.32753,1.67605 -0.31545,1.79494 0.29483,2.90125 0.43162,0.78244 1.91319,2.22916 4.60499,4.49666 4.97481,4.19063 5.42385,4.9019 5.42385,8.5912 v 2.46281 l 0.99018,0.32679 c 0.5446,0.17973 1.64593,0.41148 2.4474,0.51499 2.27655,0.29403 9.21051,0.2827 11.1145,-0.0182 z m -14.54599,-16.30211 c -2.79537,-0.43071 -3.35842,-0.8352 -2.672,-1.91955 0.20198,-0.31907 0.65401,-0.30147 3.1048,0.12093 1.93101,0.33281 4.16541,0.49469 6.83715,0.49534 4.39414,0.001 6.11865,-0.32488 9.00389,-1.70188 1.90247,-0.90796 2.31454,-0.9708 2.19196,-0.33427 -0.0517,0.26846 -1.01076,0.91398 -2.33451,1.57131 -4.17262,2.07199 -10.00797,2.71159 -16.13129,1.76812 z"
       id="path879" />
  </g>
</svg>
